# xmcd
#
# Track frame offsets: 
#        150
#        24996
#        43446
#        59806
#        79895
#        104516
#        119173
#        143759
#
# Disc length: 2340 seconds
#
# Revision: 0
# Processed by: cddbd v1.5.2PL0 Copyright (c) Steve Scherf et al.
# Submitted via: ExactAudioCopyFreeDBPlugin 1.0
#
DISCID=7a092208
DTITLE=George Dyer Band - Puff The Dust
DYEAR=2018
DGENRE=blues
TTITLE0=Sinner's Blues
TTITLE1=Wrong Woman Blues
TTITLE2=Untrustworthy Woman
TTITLE3=Slow Jam in A
TTITLE4=Puff the Dust
TTITLE5=Wasting Time
TTITLE6=Shoot You Down
TTITLE7=Tribute to Cornell
EXTD=
EXTT0=
EXTT1=
EXTT2=
EXTT3=
EXTT4=
EXTT5=
EXTT6=
EXTT7=
PLAYORDER=
